<svg width="41" height="40" viewBox="0 0 41 40" fill="none" xmlns="http://www.w3.org/2000/svg">
<path fill-rule="evenodd" clip-rule="evenodd" d="M20.1014 40C31.1472 40 40.1014 31.0457 40.1014 20C40.1014 8.9543 31.1472 0 20.1014 0C9.05573 0 0.10144 8.9543 0.10144 20C0.10144 31.0457 9.05573 40 20.1014 40ZM23.1884 15.4526C24.8932 13.7477 24.8932 10.9836 23.1884 9.27866C21.4835 7.57378 18.7194 7.57378 17.0145 9.27866C15.3097 10.9836 15.3097 13.7477 17.0145 15.4526L20.1014 18.5395L23.1884 15.4526ZM24.6489 23.087C26.3538 24.7919 29.1179 24.7919 30.8228 23.087C32.5276 21.3821 32.5276 18.618 30.8228 16.9131C29.1179 15.2083 26.3538 15.2083 24.6489 16.9131L21.562 20.0001L24.6489 23.087ZM23.1884 30.7214C24.8932 29.0165 24.8932 26.2524 23.1884 24.5475L20.1014 21.4606L17.0145 24.5475C15.3097 26.2524 15.3097 29.0165 17.0145 30.7214C18.7194 32.4263 21.4835 32.4263 23.1884 30.7214ZM9.38007 23.087C7.67523 21.3821 7.67523 18.618 9.38007 16.9131C11.085 15.2083 13.8491 15.2083 15.554 16.9131L18.6409 20.0001L15.554 23.087C13.8491 24.7919 11.085 24.7919 9.38007 23.087Z" fill="#7F57F1"/>
</svg>
