<svg width="133" height="40" viewBox="0 0 133 40" fill="none" xmlns="http://www.w3.org/2000/svg">
<path fill-rule="evenodd" clip-rule="evenodd" d="M20.1014 40C31.1472 40 40.1014 31.0457 40.1014 20C40.1014 8.9543 31.1472 0 20.1014 0C9.05573 0 0.10144 8.9543 0.10144 20C0.10144 31.0457 9.05573 40 20.1014 40ZM23.1884 15.4526C24.8932 13.7477 24.8932 10.9836 23.1884 9.27866C21.4835 7.57378 18.7194 7.57378 17.0145 9.27866C15.3097 10.9836 15.3097 13.7477 17.0145 15.4526L20.1014 18.5395L23.1884 15.4526ZM24.6489 23.087C26.3538 24.7919 29.1179 24.7919 30.8228 23.087C32.5276 21.3821 32.5276 18.618 30.8228 16.9131C29.1179 15.2083 26.3538 15.2083 24.6489 16.9131L21.562 20.0001L24.6489 23.087ZM23.1884 30.7214C24.8932 29.0165 24.8932 26.2524 23.1884 24.5475L20.1014 21.4606L17.0145 24.5475C15.3097 26.2524 15.3097 29.0165 17.0145 30.7214C18.7194 32.4263 21.4835 32.4263 23.1884 30.7214ZM9.38007 23.087C7.67523 21.3821 7.67523 18.618 9.38007 16.9131C11.085 15.2083 13.8491 15.2083 15.554 16.9131L18.6409 20.0001L15.554 23.087C13.8491 24.7919 11.085 24.7919 9.38007 23.087Z" fill="#7F57F1"/>
<path d="M47.5514 26.57C47.4194 26.57 47.3114 26.528 47.2274 26.444C47.1434 26.36 47.1014 26.252 47.1014 26.12V14.42C47.1014 14.288 47.1434 14.18 47.2274 14.096C47.3114 14.012 47.4194 13.97 47.5514 13.97H49.5134C49.6454 13.97 49.7534 14.012 49.8374 14.096C49.9214 14.18 49.9634 14.288 49.9634 14.42V18.92H54.8414V14.42C54.8414 14.288 54.8834 14.18 54.9674 14.096C55.0514 14.012 55.1594 13.97 55.2914 13.97H57.2534C57.3854 13.97 57.4934 14.012 57.5774 14.096C57.6614 14.18 57.7034 14.288 57.7034 14.42V26.12C57.7034 26.252 57.6614 26.36 57.5774 26.444C57.4934 26.528 57.3854 26.57 57.2534 26.57H55.2914C55.1594 26.57 55.0514 26.528 54.9674 26.444C54.8834 26.36 54.8414 26.252 54.8414 26.12V21.476H49.9634V26.12C49.9634 26.252 49.9214 26.36 49.8374 26.444C49.7534 26.528 49.6454 26.57 49.5134 26.57H47.5514Z" fill="#333333"/>
<path d="M64.3509 26.75C62.9709 26.75 61.8729 26.366 61.0569 25.598C60.2529 24.83 59.8269 23.714 59.7789 22.25C59.7789 22.154 59.7789 22.028 59.7789 21.872C59.7789 21.704 59.7789 21.572 59.7789 21.476C59.8269 20.552 60.0369 19.76 60.4089 19.1C60.7809 18.428 61.3029 17.918 61.9749 17.57C62.6469 17.21 63.4329 17.03 64.3329 17.03C65.3409 17.03 66.1809 17.24 66.8529 17.66C67.5369 18.068 68.0469 18.632 68.3829 19.352C68.7309 20.06 68.9049 20.876 68.9049 21.8V22.214C68.9049 22.334 68.8569 22.436 68.7609 22.52C68.6769 22.604 68.5749 22.646 68.4549 22.646H62.5689C62.5689 22.658 62.5689 22.682 62.5689 22.718C62.5689 22.742 62.5689 22.766 62.5689 22.79C62.5809 23.174 62.6529 23.528 62.7849 23.852C62.9289 24.164 63.1269 24.416 63.3789 24.608C63.6429 24.8 63.9549 24.896 64.3149 24.896C64.6149 24.896 64.8609 24.854 65.0529 24.77C65.2449 24.686 65.4009 24.584 65.5209 24.464C65.6529 24.344 65.7489 24.242 65.8089 24.158C65.9169 24.038 66.0009 23.966 66.0609 23.942C66.1329 23.906 66.2409 23.888 66.3849 23.888H68.2569C68.3769 23.888 68.4729 23.924 68.5449 23.996C68.6289 24.056 68.6649 24.146 68.6529 24.266C68.6409 24.458 68.5389 24.698 68.3469 24.986C68.1669 25.262 67.8969 25.538 67.5369 25.814C67.1769 26.078 66.7269 26.3 66.1869 26.48C65.6589 26.66 65.0469 26.75 64.3509 26.75ZM62.5689 21.008H66.0969V20.972C66.0969 20.54 66.0249 20.168 65.8809 19.856C65.7489 19.532 65.5509 19.28 65.2869 19.1C65.0229 18.92 64.7049 18.83 64.3329 18.83C63.9609 18.83 63.6429 18.92 63.3789 19.1C63.1149 19.28 62.9109 19.532 62.7669 19.856C62.6349 20.168 62.5689 20.54 62.5689 20.972V21.008Z" fill="#333333"/>
<path d="M73.4582 26.75C72.8222 26.75 72.2522 26.63 71.7482 26.39C71.2442 26.138 70.8422 25.802 70.5422 25.382C70.2422 24.962 70.0922 24.494 70.0922 23.978C70.0922 23.126 70.4342 22.454 71.1182 21.962C71.8142 21.47 72.7262 21.134 73.8542 20.954L76.2122 20.612V20.288C76.2122 19.82 76.1042 19.46 75.8882 19.208C75.6722 18.956 75.2942 18.83 74.7542 18.83C74.3582 18.83 74.0402 18.908 73.8002 19.064C73.5602 19.22 73.3742 19.424 73.2422 19.676C73.1462 19.832 73.0082 19.91 72.8282 19.91H71.1182C70.9862 19.91 70.8842 19.874 70.8122 19.802C70.7402 19.718 70.7102 19.622 70.7222 19.514C70.7222 19.31 70.8002 19.07 70.9562 18.794C71.1122 18.518 71.3522 18.248 71.6762 17.984C72.0002 17.708 72.4142 17.48 72.9182 17.3C73.4222 17.12 74.0402 17.03 74.7722 17.03C75.5282 17.03 76.1762 17.12 76.7162 17.3C77.2562 17.48 77.6882 17.732 78.0122 18.056C78.3362 18.38 78.5762 18.758 78.7322 19.19C78.8882 19.61 78.9662 20.066 78.9662 20.558V26.12C78.9662 26.252 78.9242 26.36 78.8402 26.444C78.7562 26.528 78.6482 26.57 78.5162 26.57H76.7522C76.6322 26.57 76.5302 26.528 76.4462 26.444C76.3622 26.36 76.3202 26.252 76.3202 26.12V25.454C76.1642 25.682 75.9542 25.898 75.6902 26.102C75.4262 26.294 75.1082 26.45 74.7362 26.57C74.3762 26.69 73.9502 26.75 73.4582 26.75ZM74.1782 24.878C74.5742 24.878 74.9282 24.794 75.2402 24.626C75.5522 24.458 75.7982 24.2 75.9782 23.852C76.1582 23.504 76.2482 23.066 76.2482 22.538V22.232L74.5742 22.502C73.9262 22.61 73.4522 22.772 73.1522 22.988C72.8522 23.204 72.7022 23.468 72.7022 23.78C72.7022 24.008 72.7682 24.206 72.9002 24.374C73.0442 24.542 73.2302 24.668 73.4582 24.752C73.6862 24.836 73.9262 24.878 74.1782 24.878Z" fill="#333333"/>
<path d="M84.6196 26.75C84.0196 26.75 83.4856 26.654 83.0176 26.462C82.5496 26.258 82.1536 25.97 81.8296 25.598C81.5056 25.214 81.2596 24.764 81.0916 24.248C80.9236 23.72 80.8216 23.138 80.7856 22.502C80.7736 22.274 80.7676 22.07 80.7676 21.89C80.7676 21.698 80.7736 21.494 80.7856 21.278C80.8096 20.654 80.9056 20.084 81.0736 19.568C81.2536 19.052 81.4996 18.608 81.8116 18.236C82.1356 17.852 82.5316 17.558 82.9996 17.354C83.4796 17.138 84.0196 17.03 84.6196 17.03C85.2436 17.03 85.7776 17.138 86.2216 17.354C86.6656 17.558 87.0316 17.828 87.3196 18.164V14.24C87.3196 14.108 87.3616 14 87.4456 13.916C87.5296 13.832 87.6376 13.79 87.7696 13.79H89.6236C89.7436 13.79 89.8456 13.832 89.9296 13.916C90.0136 14 90.0556 14.108 90.0556 14.24V26.12C90.0556 26.252 90.0136 26.36 89.9296 26.444C89.8456 26.528 89.7436 26.57 89.6236 26.57H87.8956C87.7756 26.57 87.6736 26.528 87.5896 26.444C87.5056 26.36 87.4636 26.252 87.4636 26.12V25.508C87.1636 25.868 86.7856 26.168 86.3296 26.408C85.8736 26.636 85.3036 26.75 84.6196 26.75ZM85.4476 24.59C85.8916 24.59 86.2456 24.488 86.5096 24.284C86.7856 24.08 86.9836 23.822 87.1036 23.51C87.2356 23.198 87.3076 22.862 87.3196 22.502C87.3436 22.274 87.3556 22.046 87.3556 21.818C87.3556 21.59 87.3436 21.368 87.3196 21.152C87.3076 20.816 87.2356 20.504 87.1036 20.216C86.9716 19.916 86.7676 19.67 86.4916 19.478C86.2276 19.286 85.8796 19.19 85.4476 19.19C84.9916 19.19 84.6316 19.292 84.3676 19.496C84.1036 19.688 83.9116 19.946 83.7916 20.27C83.6836 20.594 83.6176 20.948 83.5936 21.332C83.5576 21.704 83.5576 22.076 83.5936 22.448C83.6176 22.832 83.6836 23.186 83.7916 23.51C83.9116 23.834 84.1036 24.098 84.3676 24.302C84.6316 24.494 84.9916 24.59 85.4476 24.59Z" fill="#333333"/>
<path d="M96.5188 26.75C95.1388 26.75 94.0408 26.366 93.2248 25.598C92.4208 24.83 91.9948 23.714 91.9468 22.25C91.9468 22.154 91.9468 22.028 91.9468 21.872C91.9468 21.704 91.9468 21.572 91.9468 21.476C91.9948 20.552 92.2048 19.76 92.5768 19.1C92.9488 18.428 93.4708 17.918 94.1428 17.57C94.8148 17.21 95.6008 17.03 96.5008 17.03C97.5088 17.03 98.3488 17.24 99.0208 17.66C99.7048 18.068 100.215 18.632 100.551 19.352C100.899 20.06 101.073 20.876 101.073 21.8V22.214C101.073 22.334 101.025 22.436 100.929 22.52C100.845 22.604 100.743 22.646 100.623 22.646H94.7368C94.7368 22.658 94.7368 22.682 94.7368 22.718C94.7368 22.742 94.7368 22.766 94.7368 22.79C94.7488 23.174 94.8208 23.528 94.9528 23.852C95.0968 24.164 95.2948 24.416 95.5468 24.608C95.8108 24.8 96.1228 24.896 96.4828 24.896C96.7828 24.896 97.0288 24.854 97.2208 24.77C97.4128 24.686 97.5688 24.584 97.6888 24.464C97.8208 24.344 97.9168 24.242 97.9768 24.158C98.0848 24.038 98.1688 23.966 98.2288 23.942C98.3008 23.906 98.4088 23.888 98.5528 23.888H100.425C100.545 23.888 100.641 23.924 100.713 23.996C100.797 24.056 100.833 24.146 100.821 24.266C100.809 24.458 100.707 24.698 100.515 24.986C100.335 25.262 100.065 25.538 99.7048 25.814C99.3448 26.078 98.8948 26.3 98.3548 26.48C97.8268 26.66 97.2148 26.75 96.5188 26.75ZM94.7368 21.008H98.2648V20.972C98.2648 20.54 98.1928 20.168 98.0488 19.856C97.9168 19.532 97.7188 19.28 97.4548 19.1C97.1908 18.92 96.8728 18.83 96.5008 18.83C96.1288 18.83 95.8108 18.92 95.5468 19.1C95.2828 19.28 95.0788 19.532 94.9348 19.856C94.8028 20.168 94.7368 20.54 94.7368 20.972V21.008Z" fill="#333333"/>
<path d="M104.278 26.57C104.146 26.57 104.038 26.528 103.954 26.444C103.87 26.36 103.828 26.252 103.828 26.12V19.334H102.424C102.292 19.334 102.184 19.292 102.1 19.208C102.016 19.124 101.974 19.016 101.974 18.884V17.66C101.974 17.528 102.016 17.42 102.1 17.336C102.184 17.252 102.292 17.21 102.424 17.21H103.828V16.562C103.828 15.794 103.972 15.164 104.26 14.672C104.548 14.18 104.968 13.82 105.52 13.592C106.072 13.364 106.75 13.25 107.554 13.25H108.868C109 13.25 109.108 13.292 109.192 13.376C109.276 13.46 109.318 13.568 109.318 13.7V14.924C109.318 15.056 109.276 15.164 109.192 15.248C109.108 15.332 109 15.374 108.868 15.374H107.662C107.218 15.374 106.906 15.482 106.726 15.698C106.558 15.914 106.474 16.232 106.474 16.652V17.21H108.688C108.82 17.21 108.928 17.252 109.012 17.336C109.096 17.42 109.138 17.528 109.138 17.66V18.884C109.138 19.016 109.096 19.124 109.012 19.208C108.928 19.292 108.82 19.334 108.688 19.334H106.474V26.12C106.474 26.252 106.432 26.36 106.348 26.444C106.264 26.528 106.162 26.57 106.042 26.57H104.278Z" fill="#333333"/>
<path d="M110.843 26.57C110.711 26.57 110.603 26.528 110.519 26.444C110.435 26.36 110.393 26.252 110.393 26.12V24.104C110.393 23.972 110.435 23.864 110.519 23.78C110.603 23.696 110.711 23.654 110.843 23.654H112.859C112.991 23.654 113.099 23.696 113.183 23.78C113.267 23.864 113.309 23.972 113.309 24.104V26.12C113.309 26.252 113.267 26.36 113.183 26.444C113.099 26.528 112.991 26.57 112.859 26.57H110.843Z" fill="#333333"/>
<path d="M115.908 26.57C115.788 26.57 115.686 26.528 115.602 26.444C115.518 26.36 115.476 26.252 115.476 26.12V17.66C115.476 17.528 115.518 17.42 115.602 17.336C115.686 17.252 115.788 17.21 115.908 17.21H117.708C117.84 17.21 117.948 17.252 118.032 17.336C118.116 17.42 118.158 17.528 118.158 17.66V26.12C118.158 26.252 118.116 26.36 118.032 26.444C117.948 26.528 117.84 26.57 117.708 26.57H115.908ZM115.854 15.77C115.734 15.77 115.632 15.728 115.548 15.644C115.464 15.56 115.422 15.452 115.422 15.32V13.88C115.422 13.748 115.464 13.64 115.548 13.556C115.632 13.46 115.734 13.412 115.854 13.412H117.744C117.876 13.412 117.984 13.46 118.068 13.556C118.164 13.64 118.212 13.748 118.212 13.88V15.32C118.212 15.452 118.164 15.56 118.068 15.644C117.984 15.728 117.876 15.77 117.744 15.77H115.854Z" fill="#333333"/>
<path d="M124.769 26.75C123.773 26.75 122.939 26.588 122.267 26.264C121.595 25.928 121.079 25.454 120.719 24.842C120.371 24.23 120.179 23.516 120.143 22.7C120.131 22.46 120.125 22.19 120.125 21.89C120.125 21.578 120.131 21.308 120.143 21.08C120.179 20.252 120.383 19.538 120.755 18.938C121.127 18.326 121.649 17.858 122.321 17.534C122.993 17.198 123.809 17.03 124.769 17.03C125.717 17.03 126.527 17.198 127.199 17.534C127.871 17.858 128.393 18.326 128.765 18.938C129.137 19.538 129.341 20.252 129.377 21.08C129.401 21.308 129.413 21.578 129.413 21.89C129.413 22.19 129.401 22.46 129.377 22.7C129.341 23.516 129.143 24.23 128.783 24.842C128.435 25.454 127.925 25.928 127.253 26.264C126.581 26.588 125.753 26.75 124.769 26.75ZM124.769 24.77C125.357 24.77 125.801 24.59 126.101 24.23C126.401 23.858 126.563 23.318 126.587 22.61C126.599 22.43 126.605 22.19 126.605 21.89C126.605 21.59 126.599 21.35 126.587 21.17C126.563 20.474 126.401 19.94 126.101 19.568C125.801 19.196 125.357 19.01 124.769 19.01C124.181 19.01 123.731 19.196 123.419 19.568C123.119 19.94 122.957 20.474 122.933 21.17C122.921 21.35 122.915 21.59 122.915 21.89C122.915 22.19 122.921 22.43 122.933 22.61C122.957 23.318 123.119 23.858 123.419 24.23C123.731 24.59 124.181 24.77 124.769 24.77Z" fill="#333333"/>
</svg>
